<svg width="152" height="43" viewBox="0 0 152 43" fill="none" xmlns="http://www.w3.org/2000/svg">
    <g clip-path="url(#clip0_2132_2083)">
        <path
            d="M34.0292 0.70874C34.5203 0.798506 35.0158 0.867462 35.5007 0.982117C38.6604 1.72758 41.1588 4.49562 41.5872 7.72105C41.644 8.15391 41.6722 8.59009 41.6717 9.02673C41.6765 17.4904 41.6442 25.954 41.6895 34.4173C41.7101 38.2601 39.0593 41.818 35.0416 42.5778C34.5397 42.6728 34.0179 42.6977 33.5059 42.7002C25.0694 42.707 16.6328 42.7082 8.19612 42.7038C4.1118 42.703 0.780005 39.8256 0.116799 35.7483C0.0808296 35.5218 0.0404148 35.2958 0 35.0697V8.43591C0.0295028 8.31758 0.0735549 8.20048 0.0864876 8.08011C0.463153 4.55927 2.92926 1.74675 6.34512 0.957635C6.77675 0.858077 7.21646 0.790345 7.65294 0.70874H34.0292ZM18.3665 7.86304C18.0319 7.7692 17.791 7.637 17.5582 7.64842C16.9656 7.67416 16.3755 7.74123 15.7921 7.84917C15.1204 7.97729 14.4228 8.08746 13.8085 8.36695C13.2662 8.61177 12.7925 8.59463 12.2954 8.39674C12 8.27923 11.8565 8.35594 11.7033 8.61136C11.5501 8.86678 11.38 9.12751 11.1533 9.30174C10.6788 9.66651 10.421 10.1141 10.3543 10.7131C10.332 10.913 10.1874 11.1309 10.0382 11.2778C9.72097 11.5899 9.28449 11.8058 9.04119 12.1612C8.58329 12.8271 8.2139 13.5615 7.84047 14.2841C7.76732 14.4269 7.80773 14.6624 7.8627 14.8329C8.0385 15.3805 7.99324 15.9093 7.80652 16.4393C7.678 16.8065 7.39712 17.0881 7.69093 17.5818C7.88977 17.9164 7.99849 18.3134 8.302 18.6018C8.51903 18.8079 8.7789 19.0025 8.90823 19.2592C9.37138 20.1674 10.2371 20.5546 11.0437 21.0178C11.1808 21.0961 11.3812 21.0973 11.5473 21.0818C11.9874 21.041 12.4251 20.9749 12.8632 20.9133C13.2609 20.8578 13.6606 20.8097 14.0542 20.7317C14.4479 20.6538 14.8387 20.5326 15.2339 20.4461C15.4837 20.3927 15.6858 20.4747 15.7998 20.7276C15.9715 21.1087 16.2443 21.2026 16.6602 21.132C17.3355 21.0173 17.5574 21.2895 17.4204 21.9648C17.3933 22.0982 17.38 22.2377 17.3355 22.3642C17.1153 22.9648 17.2547 23.4659 17.7344 23.8715C18.2481 24.306 18.4958 24.8915 18.6579 25.5232C18.7254 25.7863 18.7116 26.0793 18.8167 26.3229C18.9881 26.7203 18.8418 27.0071 18.6603 27.3511C18.1535 28.3124 17.9733 29.277 18.6171 30.2962C18.9125 30.7642 19.0932 31.3375 19.1994 31.8875C19.3482 32.6587 19.5228 33.3789 19.9948 34.0407C20.2797 34.4397 20.4454 34.9791 20.5077 35.4745C20.5982 36.1991 20.9171 36.5064 21.63 36.3791C22.161 36.2844 22.6978 36.2158 23.2349 36.1599C23.753 36.1065 24.2214 35.9559 24.5597 35.5377C25.0216 34.9665 25.4977 34.4014 25.9095 33.7934C26.0902 33.5274 26.1839 33.1675 26.2138 32.8407C26.2397 32.5551 26.348 32.3878 26.5877 32.3392C27.0011 32.2576 27.1535 31.9744 27.1604 31.608C27.1676 31.2853 27.0941 30.9613 27.0795 30.6369C27.0718 30.4411 27.0391 30.1653 27.1442 30.0608C27.4675 29.7462 27.8228 29.4373 28.2208 29.2382C28.724 28.9865 29.2538 28.4042 29.1047 27.6559C29.0554 27.4086 29.1116 27.1402 29.116 26.8807C29.118 26.7582 29.1617 26.5983 29.1019 26.5261C28.7644 26.1156 28.6755 25.619 28.6003 25.1229C28.5684 24.9119 28.566 24.6573 28.6541 24.4737C29.1766 23.3876 30.0153 22.5654 30.9577 21.8624C31.9956 21.0904 32.4587 19.9536 32.9671 18.8369C33.0104 18.7418 33.0076 18.6222 33.0132 18.5133C33.0326 18.1155 32.9061 18.0457 32.5311 18.14C31.903 18.2987 31.2669 18.4297 30.6279 18.5345C30.4942 18.5565 30.2278 18.4411 30.2036 18.3436C30.0484 17.7115 29.4979 17.4324 29.1172 17.002C28.9079 16.7653 28.7535 16.4793 28.5684 16.2202C28.1643 15.6559 27.8676 15.0471 27.7524 14.3547C27.7419 14.2915 27.6857 14.2368 27.653 14.1772C27.3608 13.6333 27.0585 13.0882 26.7627 12.5415C26.6483 12.3297 26.6346 12.1591 26.7994 11.918C27.1034 11.4736 26.9773 10.9738 26.7873 10.5034C26.7691 10.4589 26.7194 10.3997 26.6794 10.3956C26.1839 10.3381 25.6634 10.1749 25.1986 10.2765C24.7541 10.3815 24.2898 10.3652 23.8536 10.2292C23.4426 10.1039 22.9904 10.0488 22.6307 9.83502C22.0067 9.46413 21.4118 9.65631 21.2525 10.3512C21.2275 10.4605 21.061 10.6401 21.01 10.6237C20.6394 10.5046 20.1751 10.4385 19.9451 10.1749C19.6258 9.80769 19.258 9.74281 18.8539 9.64733C18.5403 9.57348 18.2408 9.43842 17.9353 9.33071L17.8544 9.20544C18.6284 8.92309 17.9143 8.30208 18.3665 7.86304ZM32.6216 28.2504L32.586 28.2394C32.5771 28.0892 32.6075 27.9219 32.5509 27.7934C32.4519 27.5694 32.2995 27.3695 32.1698 27.1593C32.0121 27.3087 31.8355 27.4429 31.7014 27.611C31.4383 27.9407 31.3211 28.3765 30.8547 28.5495C30.1983 28.7943 30.065 29.0799 30.1013 29.7988C30.1127 30.0224 30.1078 30.2738 30.0205 30.4705C29.8063 30.9466 29.8394 31.3946 30.0435 31.8524C30.1793 32.1564 30.3204 32.4832 30.6999 32.4992C30.9179 32.5076 31.1325 32.442 31.3093 32.3129C31.4861 32.1837 31.6149 31.9985 31.6751 31.7867C31.9002 31.0299 32.1095 30.2685 32.3157 29.5059C32.4268 29.0885 32.5198 28.6678 32.6216 28.2504Z"
            fill="#FFFFFF" />
        <path
            d="M63.8287 0.70874C64.854 0.949067 65.307 1.7288 65.7148 2.62197C68.3749 8.44312 71.0504 14.258 73.7412 20.0666C74.7292 22.2107 75.7157 24.3557 76.7008 26.5016C77.1126 27.4025 76.934 28.3663 76.2708 28.9449C75.6241 29.5091 74.6287 29.6038 73.936 29.0844C73.6012 28.8312 73.33 28.5022 73.1443 28.1239C72.0066 25.7186 70.9045 23.2962 69.7927 20.8782C67.9848 16.9478 66.1777 13.0172 64.3714 9.0863C64.129 8.56036 63.8832 8.03645 63.5838 7.393C63.2394 8.14009 62.9488 8.76396 62.6631 9.38987C60.8676 13.3257 59.0717 17.2615 57.2754 21.1973C56.9307 21.9505 56.3713 22.4214 55.5053 22.4079C54.6565 22.394 54.0236 22.0064 53.6462 21.2381C53.3705 20.6787 53.4768 20.1197 53.7246 19.5782C54.5086 17.8645 55.294 16.1526 56.0808 14.4424C57.9398 10.3993 59.8058 6.3611 61.6434 2.3086C61.9898 1.54437 62.4602 0.974364 63.26 0.709148L63.8287 0.70874Z"
            fill="#FFFFFF" />
        <path
            d="M152 2.76395C148.632 11.1902 145.265 19.6163 141.898 28.0423C141.558 28.893 140.965 29.4157 140.037 29.4524C139.209 29.4851 138.53 28.973 138.165 28.0651C135.87 22.3686 133.579 16.6706 131.291 10.9714C130.916 10.0358 131.159 9.10424 131.885 8.58075C132.639 8.03726 133.661 8.03277 134.284 8.64807C134.573 8.93369 134.793 9.32376 134.948 9.70649C136.571 13.7024 138.183 17.7027 139.784 21.7073C139.839 21.8444 139.905 21.9778 140.008 22.2084C140.154 21.8599 140.27 21.5922 140.38 21.3217C142.963 14.9157 145.545 8.50975 148.128 2.10377C148.437 1.3375 148.955 0.82257 149.82 0.777688C150.652 0.734437 151.297 1.07677 151.724 1.79775C151.853 2.01523 151.91 2.27555 152 2.51587V2.76395Z"
            fill="#FFFFFF" />
        <path
            d="M124.642 22.5788C124.576 24.61 123.065 26.9072 120.204 28.3026C117.961 29.3957 115.588 29.6238 113.146 29.3133C110.802 29.0154 108.648 28.2316 106.814 26.6807C106.482 26.4008 106.159 26.0997 105.887 25.7622C104.984 24.6398 105.542 23.0325 106.93 22.6882C107.663 22.5066 108.273 22.651 108.814 23.2186C109.975 24.4427 111.459 25.0384 113.079 25.3403C114.936 25.6843 116.757 25.5798 118.494 24.7993C119.955 24.142 120.792 23.0203 120.775 21.3372C120.767 20.4167 120.432 19.6386 119.655 19.1881C118.817 18.7018 117.927 18.2676 117.01 17.969C115.131 17.3569 113.211 16.8751 111.321 16.2961C109.923 15.8676 108.63 15.2132 107.519 14.2306C105.873 12.7736 105.261 10.9036 105.261 8.73619C105.261 5.15006 107.595 2.64969 110.448 1.55945C112.011 0.962098 113.635 0.690761 115.31 0.799296C116.33 0.865396 117.093 1.76754 117.065 2.8435C117.038 3.84397 116.241 4.63269 115.217 4.64125C113.86 4.65309 112.557 4.8926 111.31 5.45485C109.322 6.35251 108.831 8.42731 109.311 10.0488C109.62 11.0946 110.452 11.6401 111.365 12.0824C112.988 12.865 114.734 13.2612 116.462 13.719C118.166 14.1707 119.856 14.6664 121.384 15.5926C123.548 16.9073 124.687 18.8103 124.642 22.5788Z"
            fill="#FFFFFF" />
        <path
            d="M100.424 10.1362C100.39 12.2122 99.97 14.1585 98.6533 15.8228C97.643 17.1016 96.3113 17.9401 94.8269 18.5129C93.5275 19.014 92.1756 19.3743 90.8694 19.8594C89.7677 20.2674 88.6466 20.6755 87.627 21.2467C86.0269 22.1419 85.2126 23.6336 84.9806 25.4453C84.8953 26.1087 84.8529 26.7799 84.8311 27.4491C84.7951 28.5671 84.0632 29.3729 83.0051 29.4149C81.9063 29.459 80.9933 28.7344 80.969 27.6249C80.9052 24.679 81.4479 21.9028 83.4998 19.6277C84.8816 18.0959 86.6364 17.1709 88.544 16.5144C89.811 16.0787 91.1038 15.7188 92.3664 15.2712C93.0535 15.0264 93.711 14.6946 94.3621 14.3629C95.5648 13.7509 96.2094 12.7365 96.4269 11.4015C96.6087 10.2847 96.5647 9.18999 96.2183 8.12015C95.6861 6.47785 94.4466 5.5904 92.9043 5.05262C90.6609 4.27166 88.5755 4.62542 86.661 6.00209C85.4013 6.9075 84.9374 8.23358 84.8537 9.7347C84.8371 10.035 84.8412 10.3427 84.7729 10.6324C84.5615 11.5435 83.7221 12.1074 82.7093 12.0506C81.8412 12.0025 81.0709 11.3113 81.0086 10.4096C80.8409 7.97856 81.5166 5.81807 83.1413 3.9836C84.7244 2.19604 86.7564 1.27064 89.052 0.909948C92.2941 0.400325 95.1781 1.25106 97.6579 3.41971C99.1779 4.74823 100.022 6.45786 100.283 8.46126C100.356 9.01617 100.379 9.57761 100.424 10.1362Z"
            fill="#FFFFFF" />
        <path
            d="M120.501 5.5642C120.498 4.45518 121.328 3.60568 122.416 3.60364C123.539 3.60364 124.381 4.44009 124.382 5.56216C124.382 6.64832 123.525 7.5068 122.439 7.50802C121.346 7.51088 120.505 6.66586 120.501 5.5642Z"
            fill="#FFFFFF" />
        <path
            d="M100.385 27.4751C100.385 28.5882 99.5686 29.4095 98.4572 29.4173C97.3712 29.425 96.5084 28.5739 96.5003 27.4873C96.4922 26.4008 97.3749 25.5137 98.4717 25.5182C99.5686 25.5227 100.386 26.3571 100.385 27.4751Z"
            fill="#FFFFFF" />
        <path
            d="M130.077 0.798474C131.184 0.802146 131.987 1.6182 131.99 2.74271C131.994 3.84438 131.164 4.67471 130.057 4.67267C128.966 4.67063 128.095 3.80969 128.1 2.7423C128.106 1.62472 128.949 0.794802 130.077 0.798474Z"
            fill="#FFFFFF" />
        <path
            d="M52.2385 25.4706C52.495 25.4666 52.7496 25.5141 52.9877 25.6104C53.2258 25.7066 53.4425 25.8497 53.6254 26.0313C53.8082 26.2129 53.9534 26.4294 54.0526 26.6681C54.1519 26.9069 54.2031 27.1632 54.2033 27.4221C54.2036 27.681 54.1528 27.9374 54.054 28.1764C53.9553 28.4153 53.8104 28.6321 53.6279 28.814C53.4455 28.9959 53.229 29.1394 52.9911 29.2362C52.7532 29.3329 52.4986 29.3809 52.2422 29.3774C51.1639 29.3798 50.318 28.5206 50.314 27.4189C50.3099 26.3172 51.1453 25.4698 52.2385 25.4706Z"
            fill="#FFFFFF" />
        <path
            d="M50.8066 40.9946C50.8261 40.8896 50.8524 40.786 50.8854 40.6845C51.5701 38.9618 52.2531 37.2388 52.9523 35.5222C53.0008 35.4039 53.1774 35.2594 53.2857 35.266C53.4231 35.2745 53.6231 35.3957 53.6733 35.5193C54.3979 37.2987 55.1019 39.0867 55.8088 40.8734C55.8221 40.9077 55.8088 40.9526 55.8088 41.0048C55.519 41.1244 55.3303 41.0595 55.2288 40.7359C55.1314 40.4242 54.9928 40.1239 54.8885 39.8154C54.8077 39.5735 54.6638 39.4772 54.4036 39.4821C53.6725 39.496 52.9405 39.498 52.2094 39.4821C51.929 39.4756 51.7907 39.5894 51.7063 39.8448C51.6036 40.1553 51.4638 40.454 51.3591 40.7633C51.2662 41.0395 51.1005 41.1211 50.8066 40.9946ZM54.5624 39.0075C54.1465 37.9402 53.7513 36.9266 53.356 35.9127L53.2481 35.929C52.8541 36.9385 52.4604 37.9483 52.047 39.0075H54.5624Z"
            fill="#FFFFFF" />
        <path
            d="M94.0578 39.9775C94.6685 40.5014 95.3588 40.7119 96.1367 40.6034C96.671 40.5295 97.0663 40.1835 97.1374 39.7269C97.215 39.2295 96.9903 38.8562 96.4233 38.631C96.0224 38.4714 95.5976 38.3735 95.1902 38.2283C94.2813 37.9039 93.8941 37.3796 93.9838 36.6214C94.0808 35.7981 94.6305 35.2342 95.556 35.2044C96.0753 35.1868 96.6068 35.3766 97.1237 35.5165C97.3965 35.5908 97.4264 35.8021 97.23 36.0176C96.8557 35.9041 96.4916 35.7495 96.1129 35.6912C95.815 35.6463 95.4901 35.6818 95.1947 35.7544C94.9882 35.8065 94.8042 35.9252 94.6706 36.0924C94.537 36.2596 94.461 36.4663 94.4543 36.681C94.4466 37.1184 94.6458 37.4603 95.052 37.6195C95.5681 37.8198 96.106 37.9614 96.625 38.1552C97.4939 38.4792 97.8515 39.2283 97.5044 40.0958C97.3777 40.3925 97.1601 40.6403 96.8836 40.8029C95.9023 41.3435 94.9542 41.1566 94.0546 40.5495C93.7793 40.3639 93.9325 40.1913 94.0578 39.9775Z"
            fill="#FFFFFF" />
        <path
            d="M142.214 39.0839C142.27 39.7216 142.507 40.2121 143.054 40.4712C143.738 40.7947 144.372 40.6564 144.913 40.1154C145.196 40.2941 145.169 40.4585 144.948 40.6621C144.159 41.3892 142.667 41.1701 142.103 40.2166C141.641 39.436 141.612 38.6012 141.957 37.7737C142.28 36.9985 143.062 36.5533 143.813 36.6614C144.581 36.7716 145.249 37.4616 145.386 38.285C145.511 39.0353 145.511 39.0353 144.755 39.0353C144.091 39.0353 143.426 39.0325 142.762 39.0378C142.591 39.0386 142.422 39.0655 142.214 39.0839ZM144.898 38.6249C144.921 38.4427 144.907 38.2576 144.856 38.0811C144.806 37.9045 144.721 37.7402 144.605 37.5982C144.49 37.4562 144.347 37.3395 144.185 37.2553C144.023 37.171 143.846 37.121 143.665 37.1082C142.976 37.0625 142.216 37.7203 142.225 38.3764C142.225 38.46 142.343 38.6126 142.409 38.6138C143.241 38.6302 144.074 38.6249 144.898 38.6249Z"
            fill="#FFFFFF" />
        <path
            d="M134.791 41.0003C134.217 41.1831 134.408 40.7306 134.309 40.456C133.905 40.8807 133.442 41.0978 132.869 41.0648C132.101 41.0203 131.629 40.5702 131.629 39.8407C131.629 39.0826 132.069 38.6435 132.856 38.624C133.22 38.615 133.588 38.6048 133.953 38.6268C134.286 38.6464 134.346 38.475 134.319 38.1984C134.227 37.2677 133.464 36.8597 132.52 37.2522C132.322 37.3338 132.141 37.4562 131.924 37.5786L131.743 37.2485C132.404 36.625 133.33 36.481 134.095 36.8564C134.585 37.0967 134.764 37.5415 134.782 38.0315C134.814 39.0136 134.791 39.9974 134.791 41.0003ZM133.484 39.001C133.484 38.9891 133.481 38.9773 133.48 38.9655C133.173 39.0063 132.854 39.0038 132.563 39.0936C132.021 39.2609 131.891 40.0622 132.325 40.4323C132.916 40.9375 134.004 40.6363 134.261 39.8945C134.496 39.2164 134.349 39.0014 133.647 39.001H133.484Z"
            fill="#FFFFFF" />
        <path
            d="M71.8942 37.5411C71.676 37.3281 71.743 37.1612 72.0154 37.0013C72.5966 36.6622 73.2073 36.5524 73.8515 36.7475C74.3522 36.8989 74.6917 37.26 74.7119 37.7798C74.7523 38.8406 74.724 39.9076 74.724 40.9873C74.4124 41.0868 74.4124 41.0868 74.2823 40.4793C73.8624 40.9224 73.3811 41.1321 72.7837 41.0599C72.0098 40.964 71.6008 40.5237 71.6258 39.7591C71.6489 39.0687 72.1068 38.6432 72.8561 38.6256C73.2222 38.617 73.5888 38.6117 73.9541 38.6256C74.2936 38.6383 74.3777 38.4763 74.3312 38.167C74.21 37.3575 73.668 36.9637 72.8827 37.1612C72.5631 37.242 72.2616 37.3979 71.8942 37.5411ZM73.4825 38.9969L73.4789 38.9659C73.1863 39.003 72.888 39.0169 72.6023 39.0842C72.2789 39.1601 72.106 39.3992 72.0769 39.7322C72.0453 40.0717 72.1577 40.3499 72.4552 40.5307C73.1054 40.9256 74.0564 40.5539 74.2738 39.8232C74.4759 39.1365 74.3789 38.9969 73.6878 38.9969H73.4825Z"
            fill="#FFFFFF" />
        <path
            d="M125.948 35.2856C126.271 35.1693 126.442 35.2762 126.563 35.5993C127.099 37.0307 127.654 38.4555 128.206 39.8795C128.253 40.0019 128.312 40.119 128.413 40.3451C128.661 39.7159 128.869 39.1924 129.072 38.6669C129.472 37.6358 129.875 36.6067 130.262 35.5712C130.368 35.2856 130.523 35.1733 130.859 35.2982C130.573 36.038 130.29 36.772 130.01 37.5064C129.594 38.5893 129.187 39.6755 128.754 40.7515C128.703 40.8792 128.526 41.0159 128.393 41.0318C128.286 41.0444 128.096 40.9061 128.05 40.7914C127.347 39.0149 126.66 37.231 125.973 35.448C125.959 35.3948 125.95 35.3404 125.948 35.2856Z"
            fill="#FFFFFF" />
        <path
            d="M88.637 38.8937C88.6402 40.461 87.3842 41.4549 86.0375 40.9551C85.2337 40.6568 84.6929 39.6759 84.7827 38.6799C84.8708 37.6986 85.3852 36.9768 86.1636 36.7426C87.3943 36.3721 88.5481 37.2404 88.6362 38.6065C88.6427 38.702 88.637 38.7978 88.637 38.8937ZM88.2143 38.8529C88.15 38.5775 88.1193 38.3005 88.0203 38.0512C87.794 37.4824 87.3648 37.1417 86.7509 37.1192C86.1523 37.0968 85.7126 37.393 85.4548 37.9381C85.1569 38.5693 85.1521 39.212 85.4713 39.8338C85.7348 40.3475 86.1665 40.6446 86.7513 40.6164C87.3595 40.5874 87.8041 40.27 88.0227 39.691C88.1225 39.4262 88.152 39.1353 88.2143 38.8521V38.8529Z"
            fill="#FFFFFF" />
        <path
            d="M111.554 38.8316C111.554 37.7549 112.096 36.9494 112.961 36.7315C114.108 36.4422 115.191 37.1595 115.332 38.3465C115.38 38.759 115.372 39.2033 115.271 39.604C115.01 40.6429 114.217 41.1598 113.169 41.0521C112.33 40.966 111.624 40.1573 111.555 39.2013C111.545 39.0789 111.554 38.9549 111.554 38.8316ZM114.917 38.863C114.911 38.7643 114.917 38.6113 114.89 38.4648C114.768 37.8324 114.464 37.3485 113.809 37.1657C113.553 37.0937 113.282 37.1006 113.031 37.1855C112.779 37.2703 112.558 37.4293 112.397 37.6418C111.879 38.302 111.858 39.3898 112.357 40.0553C112.615 40.3997 112.955 40.598 113.394 40.6098C114.286 40.6339 114.896 39.9549 114.917 38.863Z"
            fill="#FFFFFF" />
        <path
            d="M150.289 36.6769C149.985 37.4591 149.697 38.2029 149.407 38.9463C149.047 39.8738 148.695 40.8057 148.32 41.7274C148.029 42.4415 147.592 42.7504 146.979 42.6969C146.805 42.6779 146.637 42.6238 146.485 42.5378C146.187 42.3746 146.191 42.3366 146.441 41.9935C146.539 42.0502 146.637 42.1159 146.742 42.1661C147.036 42.306 147.319 42.2913 147.576 42.0743C147.975 41.7384 148.138 41.095 147.948 40.609C147.495 39.4543 147.043 38.2996 146.591 37.1449C146.547 37.0327 146.514 36.916 146.47 36.7834C146.789 36.6039 146.923 36.7773 147.021 37.0307C147.401 38.0099 147.781 38.988 148.16 39.9648C148.208 40.0872 148.267 40.2067 148.362 40.4173C148.463 40.1941 148.532 40.0566 148.587 39.9138C148.951 38.9753 149.321 38.0348 149.674 37.0902C149.775 36.8189 149.924 36.659 150.289 36.6769Z"
            fill="#FFFFFF" />
        <path
            d="M117.647 37.3624C117.88 37.1756 118.071 36.9711 118.303 36.8446C119.279 36.3142 120.349 36.8336 120.581 37.9345C120.614 38.0808 120.631 38.2301 120.634 38.38C120.639 39.2528 120.636 40.1256 120.636 41.022L120.183 41.0497C120.183 40.3561 120.188 39.6906 120.181 39.0243C120.183 38.7106 120.164 38.397 120.124 38.0859C120.043 37.5554 119.737 37.229 119.195 37.1474C118.666 37.0699 118.198 37.2123 117.926 37.6778C117.756 37.9851 117.657 38.3275 117.637 38.6791C117.593 39.3609 117.632 40.0476 117.614 40.7319C117.611 40.8388 117.502 41.0102 117.412 41.0338C117.177 41.0954 117.165 40.9025 117.164 40.7274C117.161 39.536 117.153 38.3445 117.158 37.1531C117.158 36.9899 117.061 36.71 117.371 36.7353C117.452 36.7422 117.52 36.9854 117.584 37.1246C117.611 37.2019 117.633 37.2815 117.647 37.3624Z"
            fill="#FFFFFF" />
        <path
            d="M80.0649 35.7054V35.2648C80.2403 35.2566 80.4113 35.2427 80.5823 35.2423C81.625 35.2383 82.6678 35.2363 83.7108 35.2366C83.8938 35.2366 84.1202 35.1852 84.1084 35.4933C84.0971 35.7862 83.8724 35.6973 83.7148 35.7005C83.39 35.7165 83.0647 35.7156 82.74 35.6977C82.3892 35.6708 82.2954 35.8307 82.2991 36.1543C82.3116 37.5762 82.3096 38.9986 82.3124 40.4206C82.3124 40.5299 82.3415 40.6515 82.3031 40.747C82.2574 40.8592 82.1536 40.9477 82.0752 41.0465C81.9976 40.949 81.8581 40.8547 81.8537 40.7539C81.8307 40.2492 81.8428 39.7424 81.8428 39.2369C81.8428 38.225 81.8254 37.2127 81.8513 36.2012C81.8618 35.7932 81.7175 35.6748 81.336 35.7005C80.9209 35.7271 80.503 35.7054 80.0649 35.7054Z"
            fill="#FFFFFF" />
        <path
            d="M69.8666 37.7244C69.2955 37.1123 68.7644 36.9736 68.1433 37.2543C67.5657 37.5155 67.1798 38.2715 67.2505 39.0035C67.3528 40.0566 67.9731 40.6952 68.8817 40.5809C69.2397 40.5357 69.5723 40.2839 70.0161 40.0807C70.1887 40.1521 70.2295 40.3043 69.9878 40.5601C69.2199 41.3733 67.8111 41.2228 67.1588 40.2455C66.2834 38.9313 66.8888 37.045 68.309 36.6998C68.9463 36.5448 69.5121 36.7206 69.9866 37.1854C70.2299 37.4216 70.2206 37.5995 69.8666 37.7244Z"
            fill="#FFFFFF" />
        <path
            d="M110.071 40.0888C110.288 40.1798 110.237 40.3569 110.017 40.5858C109.34 41.288 107.996 41.224 107.359 40.4495C106.665 39.6037 106.642 38.2172 107.307 37.3596C108.01 36.4533 109.49 36.4052 110.104 37.278C110.159 37.3571 110.118 37.5052 110.121 37.6211C110.015 37.6138 109.866 37.6497 109.809 37.5921C109.292 37.0699 108.715 36.963 108.071 37.3175C107.537 37.6129 107.206 38.4029 107.304 39.099C107.443 40.0925 108.045 40.6903 108.903 40.5809C109.265 40.5356 109.601 40.2949 110.071 40.0888Z"
            fill="#FFFFFF" />
        <path
            d="M59.0388 37.118C58.785 37.118 58.5425 37.1315 58.302 37.1147C57.9787 37.0919 57.8728 37.2412 57.8752 37.5513C57.8841 38.6179 57.8785 39.6849 57.8752 40.7515C57.8752 40.8331 57.8615 40.9122 57.8534 40.9963C57.5228 41.1236 57.4089 41.0199 57.4145 40.6756C57.4279 39.6641 57.4089 38.6518 57.4222 37.6399C57.4266 37.3057 57.3915 37.0715 56.9728 37.1127C56.9025 37.1196 56.818 36.9813 56.74 36.9087C56.8208 36.843 56.9089 36.7137 56.9825 36.7214C57.4177 36.7679 57.4295 36.5113 57.4226 36.1853C57.4024 35.2656 57.855 34.7829 58.6609 34.8425C58.7535 34.849 58.8666 34.8535 58.9313 34.9069C59.0473 35.0024 59.1334 35.135 59.2324 35.2521C59.0933 35.2639 58.9418 35.3186 58.8185 35.2799C58.5001 35.1803 58.1961 35.2439 58.081 35.5247C57.9549 35.8315 57.9633 36.1971 57.9347 36.539C57.9322 36.5704 58.0834 36.6398 58.1674 36.6484C58.3554 36.6677 58.5446 36.6717 58.7333 36.6602C59.0331 36.6439 59.1382 36.7671 59.0388 37.118Z"
            fill="#FFFFFF" />
        <path
            d="M137.304 41.013C137.005 41.1154 136.89 40.9943 136.891 40.7074C136.891 38.8713 136.887 37.0385 136.902 35.204C136.902 35.0938 137.057 34.9849 137.14 34.8751C137.209 34.9669 137.338 35.0587 137.338 35.1509C137.349 37.0536 137.344 38.9566 137.341 40.8596C137.335 40.9121 137.322 40.9636 137.304 41.013Z"
            fill="#FFFFFF" />
        <path
            d="M102.476 37.9564C102.476 38.8586 102.486 39.7611 102.465 40.6633C102.462 40.7922 102.315 40.9179 102.234 41.0452C102.159 40.9158 102.019 40.7873 102.018 40.6571C102.004 38.8663 102.007 37.0755 102.011 35.2843C102.011 35.1211 101.959 34.8665 102.235 34.9171C102.334 34.935 102.462 35.1582 102.466 35.2908C102.486 36.1787 102.476 37.0678 102.476 37.9564Z"
            fill="#FFFFFF" />
        <path
            d="M139.953 38.0332C139.953 38.921 139.961 39.8093 139.943 40.6968C139.941 40.8143 139.807 40.9289 139.734 41.0452C139.653 40.9285 139.511 40.8139 139.507 40.6947C139.485 40.0011 139.496 39.3021 139.496 38.6052C139.496 37.4995 139.488 36.3937 139.506 35.2884C139.509 35.157 139.654 35.0285 139.734 34.8983C139.812 35.0285 139.956 35.157 139.959 35.2884C139.979 36.2032 139.97 37.1184 139.97 38.0332H139.953Z"
            fill="#FFFFFF" />
        <path
            d="M61.5073 37.3853C61.9114 36.9319 62.3099 36.6508 62.8644 36.6704C62.9671 36.956 62.9396 37.127 62.5924 37.1947C61.9587 37.3171 61.5651 37.788 61.5319 38.4637C61.4956 39.2006 61.5053 39.9391 61.4818 40.6768C61.4778 40.7992 61.4378 40.9824 61.3581 41.0224C61.1844 41.1093 61.0449 41.0248 61.0449 40.7988C61.0449 39.5274 61.0397 38.2556 61.0534 36.9842C61.0534 36.8948 61.1933 36.8067 61.268 36.7177C61.3351 36.812 61.4188 36.8989 61.4644 37.0033C61.4996 37.0837 61.4879 37.1861 61.5073 37.3853Z"
            fill="#FFFFFF" />
        <path
            d="M105.084 41.031H104.599C104.599 40.5822 104.599 40.1468 104.599 39.7135C104.599 38.837 104.589 37.959 104.608 37.0846C104.61 36.952 104.729 36.7263 104.825 36.7096C105.102 36.6598 105.085 36.8961 105.085 37.0932C105.083 38.3915 105.084 39.6898 105.084 41.031Z"
            fill="#FFFFFF" />
        <path
            d="M64.5735 38.8937C64.5735 38.2923 64.563 37.6909 64.582 37.0903C64.586 36.9634 64.6782 36.7516 64.7651 36.7312C65.0108 36.6737 65.0278 36.8748 65.0274 37.0694C65.0239 38.2859 65.0239 39.5021 65.0274 40.718C65.0274 40.8898 65.0274 41.093 64.793 41.033C64.6968 41.0085 64.5844 40.8167 64.5804 40.6972C64.5586 40.0966 64.5703 39.4951 64.5703 38.8937H64.5735Z"
            fill="#FFFFFF" />
        <path
            d="M99.8612 38.8844C99.8612 39.4866 99.8612 40.0889 99.8612 40.6911C99.8612 40.8719 99.8612 41.0991 99.6018 41.0363C99.5088 41.0143 99.3997 40.8115 99.3969 40.6899C99.382 39.4846 99.382 38.2793 99.3969 37.074C99.3969 36.9516 99.5335 36.8349 99.607 36.7153C99.6818 36.8357 99.8172 36.9536 99.822 37.0768C99.8447 37.6787 99.8321 38.2817 99.8321 38.8844H99.8612Z"
            fill="#FFFFFF" />
        <path
            d="M105.338 35.2297C105.11 35.4247 104.979 35.6226 104.861 35.6153C104.73 35.6071 104.516 35.4113 104.513 35.2954C104.509 35.1668 104.687 34.9583 104.821 34.9237C104.929 34.8959 105.09 35.0734 105.338 35.2297Z"
            fill="#FFFFFF" />
        <path
            d="M100.114 35.2819C99.8741 35.4504 99.725 35.634 99.6078 35.6156C99.4797 35.5952 99.2865 35.3814 99.2942 35.2631C99.3023 35.135 99.4962 34.9416 99.6324 34.9228C99.7436 34.9069 99.8858 35.1015 100.114 35.2819Z"
            fill="#FFFFFF" />
        <path
            d="M65.2889 35.2741C65.0464 35.4488 64.8989 35.6357 64.7857 35.6161C64.6516 35.5928 64.4523 35.3888 64.4564 35.2688C64.4604 35.1424 64.6584 34.9469 64.7942 34.9228C64.9062 34.9037 65.0509 35.0954 65.2889 35.2741Z"
            fill="#FFFFFF" />
    </g>
    <defs>
        <clipPath id="clip0_2132_2083">
            <rect width="152" height="42" fill="white" transform="translate(0 0.70874)" />
        </clipPath>
    </defs>
</svg>